<?xml version="1.0" standalone="no"?>
<!DOCTYPE svg PUBLIC "-//W3C//DTD SVG 20010904//EN"
 "http://www.w3.org/TR/2001/REC-SVG-20010904/DTD/svg10.dtd">
<svg version="1.0" xmlns="http://www.w3.org/2000/svg"
 width="225.000000pt" height="225.000000pt" viewBox="0 0 225.000000 225.000000"
 preserveAspectRatio="xMidYMid meet">

<g transform="translate(0.000000,225.000000) scale(0.100000,-0.100000)"
fill="#000000" stroke="none">
<path d="M975 2239 c-454 -57 -847 -418 -945 -868 -86 -394 34 -784 326 -1061
380 -361 947 -410 1394 -119 84 55 254 225 309 309 236 363 252 823 39 1185
-234 398 -666 611 -1123 554z m686 -618 c36 -36 37 -73 4 -106 l-24 -25 -516
0 -516 0 -24 25 c-33 33 -32 70 4 106 l29 29 507 0 507 0 29 -29z m5 -444 c30
-36 30 -68 0 -104 l-24 -28 -517 0 -517 0 -24 28 c-13 15 -24 38 -24 50 0 29
26 66 54 77 11 5 248 8 524 7 l504 -2 24 -28z m-1 -442 c33 -33 32 -70 -4
-106 l-29 -29 -507 0 -507 0 -29 29 c-36 36 -37 73 -4 106 l24 25 516 0 516 0
24 -25z"/>
</g>
</svg>
